<svg width="16" height="16" viewBox="0 0 16 16" fill="none" xmlns="http://www.w3.org/2000/svg">
<path d="M5.33333 5.33341H4.13346C3.38673 5.33341 3.01308 5.33341 2.72786 5.47874C2.47698 5.60657 2.27316 5.8104 2.14532 6.06128C2 6.34649 2 6.72014 2 7.46688V11.2002C2 11.9469 2 12.3201 2.14532 12.6053C2.27316 12.8562 2.47698 13.0604 2.72786 13.1882C3.0128 13.3334 3.386 13.3334 4.13127 13.3334H11.8687C12.614 13.3334 12.9867 13.3334 13.2716 13.1882C13.5225 13.0604 13.727 12.8562 13.8548 12.6053C14 12.3204 14 11.9477 14 11.2025V7.46469C14 6.71941 14 6.34622 13.8548 6.06128C13.727 5.8104 13.5225 5.60657 13.2716 5.47874C12.9864 5.33341 12.6135 5.33341 11.8668 5.33341H10.6667M5.33333 5.33341H10.6667M5.33333 5.33341C5.33333 3.86066 6.52724 2.66675 8 2.66675C9.47276 2.66675 10.6667 3.86066 10.6667 5.33341" stroke="#B55154" stroke-width="2" stroke-linecap="round" stroke-linejoin="round"/>
</svg>
