<svg width="163" height="158" viewBox="0 0 163 158" fill="none" xmlns="http://www.w3.org/2000/svg">
<path d="M161.487 99.1047L137.295 79.8396L152.57 62.9781C152.871 62.6401 152.984 62.1894 152.909 61.7388L145.948 31.3579C145.76 30.6068 145.045 30.1562 144.293 30.3064L114.156 37.1787L110.469 14.7216C110.394 14.271 110.093 13.8954 109.717 13.7077L81.6117 0.188351C80.9345 -0.149631 80.1068 0.150798 79.7682 0.826763L66.3365 28.654L46.4711 17.5381C46.0573 17.3128 45.6058 17.3128 45.1919 17.5006L17.087 31.0199C16.4098 31.3579 16.1087 32.1841 16.4473 32.86L29.879 60.6873L8.77204 69.2495C8.35818 69.4373 8.05719 69.7753 7.94432 70.2259L0.984012 100.607C0.795893 101.358 1.285 102.109 2.03747 102.259L32.174 109.131L25.7404 130.95C25.6275 131.401 25.7404 131.851 26.0038 132.189L45.4552 156.524C45.9443 157.125 46.8097 157.238 47.4117 156.75L71.6038 137.484L84.6969 156.111C84.9603 156.487 85.3741 156.712 85.8256 156.712H117.016C117.768 156.712 118.408 156.074 118.408 155.322V124.453L141.133 125.88C141.584 125.88 142.035 125.73 142.299 125.355L161.75 101.02C162.239 100.419 162.127 99.5553 161.525 99.0671L161.487 99.1047ZM137.521 45.6658C138.273 45.4781 139.026 45.9663 139.176 46.7173L141.358 56.3311C141.471 56.7817 141.358 57.2699 141.02 57.5703L127.437 72.0285L118.709 65.0811L116.301 50.5102L137.483 45.6658H137.521ZM101.515 99.5929C100.988 100.194 100.837 100.907 100.988 101.658L103.057 110.671L80.5583 108.869C79.7682 108.869 79.0909 109.131 78.6017 109.77L72.8078 117.018L60.2038 98.316C59.7147 97.6776 59.075 97.3396 58.2849 97.3396H48.9919L55.7642 75.8214C55.9523 75.0328 55.8018 74.3568 55.3127 73.7184L49.5186 66.4705L70.588 58.359C71.3028 58.021 71.7919 57.4952 71.9424 56.7066L74.0116 47.6937L93.5008 59.0725C94.2157 59.448 94.9305 59.448 95.6453 59.0725L103.998 55.0542L107.233 77.3611C107.384 78.1497 107.835 78.713 108.55 79.051L116.903 83.0693L101.439 99.5178L101.515 99.5929ZM87.481 15.698C87.8196 15.022 88.6473 14.7216 89.3245 15.0596L98.2413 19.3407C98.6552 19.5285 98.9563 19.9416 99.0315 20.3922L101.891 39.9952L90.98 42.4738L78.0751 35.2635L87.5187 15.698H87.481ZM32.8513 36.0521C32.5127 35.3761 32.8137 34.5499 33.4909 34.212L42.4077 29.9308C42.8216 29.7431 43.3107 29.7431 43.7246 29.9684L60.8433 39.9577L55.9899 50.022L42.2948 55.58L32.8513 36.0145V36.0521ZM14.7542 91.4062C14.0017 91.2184 13.5503 90.5049 13.7007 89.7538L15.883 80.1401C15.9959 79.6894 16.2969 79.3139 16.7484 79.1637L35.2592 72.0285L40.1127 82.0929L35.9364 96.2506L14.7542 91.4062ZM46.8097 140.038C46.2077 140.526 45.3423 140.414 44.8532 139.813L38.683 132.114C38.382 131.739 38.3068 131.288 38.4572 130.837L44.4018 111.948L55.3127 114.427L63.8156 126.519L46.8097 140.038ZM104.901 145.333C104.901 146.084 104.261 146.723 103.509 146.723H93.6137C93.1622 146.723 92.7107 146.497 92.4474 146.122L81.3483 129.673L90.0771 122.726L104.863 123.627V145.333H104.901ZM145.497 105.263L139.327 112.962C139.026 113.338 138.574 113.525 138.123 113.488L118.333 111.91V100.757L128.265 89.7914L145.271 103.311C145.873 103.799 145.986 104.663 145.497 105.263Z" fill="#FA9DA3"/>
</svg>
