<svg width="155" height="165" viewBox="0 0 155 165" fill="none" xmlns="http://www.w3.org/2000/svg">
<path d="M152.86 97.9951C151.167 91.9114 147.894 86.729 143.078 82.5606C147.894 78.3546 151.13 73.1721 152.785 67.0134C155.268 58.5638 153.914 50.0391 148.91 41.3642C143.944 32.802 137.209 27.3567 128.593 25.1786C122.46 23.6013 116.328 23.8642 110.308 25.9297C109.066 19.6958 106.207 14.2505 101.654 9.74404C95.5594 3.39747 87.5079 0.280518 77.4248 0.280518C67.3416 0.280518 59.4406 3.39747 53.195 9.74404C48.7554 14.2505 45.9337 19.6958 44.6921 25.9297C38.6347 23.8642 32.502 23.6389 26.3317 25.2912C17.7535 27.3567 11.0188 32.802 6.01485 41.4769C1.04851 50.0391 -0.268315 58.5638 2.13961 67.126C3.83267 73.2097 7.14356 78.3921 11.9218 82.5606C7.10594 86.7666 3.87031 91.949 2.21487 98.1078C-0.268299 106.557 1.08615 115.082 6.09011 123.757C11.0564 132.319 17.7911 137.764 26.4069 139.943C32.5396 141.52 38.6723 141.257 44.6921 139.191C45.9337 145.425 48.7931 150.871 53.3455 155.377C59.4406 161.724 67.4921 164.841 77.5753 164.841C87.6584 164.841 95.5594 161.724 101.805 155.377C106.245 150.871 109.066 145.425 110.308 139.191C116.365 141.257 122.498 141.482 128.668 139.83C137.247 137.764 143.981 132.319 148.985 123.644C153.951 115.082 155.268 106.557 152.86 97.9951ZM126.26 36.4071C131.979 37.8342 136.381 41.1764 139.579 46.6968C145.825 57.4747 142.439 69.1539 132.017 75.8009C125.433 73.1346 118.773 72.7215 112.039 74.449C110.421 74.8996 108.841 75.4254 107.336 76.1013C104.852 74.3363 102.67 71.9329 100.94 68.9286C99.2089 65.9243 98.2307 62.92 97.9297 59.9157C99.2466 58.9769 100.488 57.8878 101.654 56.7236C106.658 51.729 109.668 45.6829 110.647 38.5852C115.876 35.8438 121.144 35.0928 126.298 36.3696L126.26 36.4071ZM87.7713 100.286C84.6109 99.4221 81.2248 99.0091 77.5376 99.0091C73.8505 99.0091 70.3891 99.4597 67.2287 100.323C66.401 97.1689 65.0466 94.0144 63.2406 90.8599C61.397 87.6679 59.2901 84.9264 56.9574 82.5981C59.2525 80.3073 61.3594 77.5659 63.1653 74.4114C65.0089 71.2194 66.3634 68.0273 67.1911 64.8352C70.3515 65.699 73.7376 66.1121 77.4248 66.1121C81.1119 66.1121 84.5733 65.6614 87.7337 64.7977C88.5614 67.9522 89.9158 71.1067 91.7218 74.2612C93.5653 77.4533 95.6723 80.1947 98.0049 82.523C95.7099 84.8138 93.603 87.5552 91.797 90.7097C89.9535 93.9018 88.599 97.0938 87.7713 100.286ZM77.4248 10.9458C89.8782 10.9458 98.3812 19.6958 98.9079 32.0509C93.302 36.4071 89.6148 41.9651 87.7337 48.6496C87.2822 50.2644 86.9812 51.9168 86.8307 53.5316C84.0465 54.7709 80.9238 55.4844 77.4248 55.4844C73.9258 55.4844 70.8406 54.846 68.0941 53.5691C67.9059 51.9543 67.6049 50.3771 67.1911 48.7623C65.3475 41.9275 61.6228 36.332 55.9416 31.9382C56.205 26.0423 58.1614 21.1228 61.8485 17.2923C65.9495 13.0488 71.0663 10.9458 77.4248 10.9458ZM15.3456 46.8095C21.5911 36.0316 33.405 33.1024 44.3911 38.8106C45.4069 45.8331 48.3416 51.8041 53.195 56.7612C54.399 57.9629 55.6406 59.0144 56.9574 59.9908C56.6564 62.9951 55.6782 66.0745 53.9475 69.0788C52.2168 72.0831 50.1099 74.4114 47.6267 76.214C46.1594 75.5756 44.6168 75.0123 42.999 74.5992C36.1515 72.7591 29.4169 73.1721 22.7951 75.876C17.7911 72.7215 14.5178 68.5531 13.0505 63.4833C11.4327 57.8127 12.1475 52.3299 15.3079 46.847L15.3456 46.8095ZM28.7396 128.676C23.0208 127.249 18.6188 123.907 15.4208 118.387C9.17524 107.609 12.5614 95.9297 22.9832 89.2827C29.5673 91.949 36.2267 92.3621 42.9614 90.6346C44.5792 90.184 46.1594 89.6582 47.6643 88.9822C50.1475 90.7473 52.3297 93.1507 54.0604 96.155C55.7911 99.1593 56.7693 102.164 57.0703 105.168C55.7535 106.107 54.5119 107.196 53.3455 108.36C48.3416 113.355 45.3317 119.401 44.3535 126.498C39.1238 129.24 33.8565 129.991 28.702 128.714L28.7396 128.676ZM77.5753 154.138C65.1218 154.138 56.6188 145.388 56.0921 133.033C61.698 128.676 65.3852 123.119 67.2663 116.434C67.7178 114.819 68.0188 113.167 68.1693 111.552C70.9535 110.313 74.0762 109.599 77.5753 109.599C81.0743 109.599 84.1594 110.238 86.9059 111.514C87.094 113.129 87.3951 114.706 87.8089 116.321C89.6525 123.156 93.3772 128.752 99.0584 133.145C98.795 139.041 96.8386 143.961 93.1515 147.791C89.0505 152.035 83.9337 154.138 77.5753 154.138ZM139.654 118.274C133.409 129.052 121.595 131.981 110.609 126.273C109.593 119.25 106.658 113.279 101.805 108.322C100.601 107.121 99.3594 106.069 98.0049 105.093C98.3059 102.088 99.2841 99.0091 101.015 96.0048C102.746 93.0005 104.852 90.6721 107.336 88.8696C108.803 89.508 110.346 90.0713 111.963 90.4844C118.811 92.3245 125.546 91.9114 132.167 89.2076C137.134 92.3621 140.445 96.5305 141.912 101.6C143.53 107.271 142.815 112.754 139.654 118.237V118.274Z" fill="#FA9DA3"/>
</svg>
