<svg width="161" height="160" viewBox="0 0 161 160" fill="none" xmlns="http://www.w3.org/2000/svg">
<path d="M159.228 67.9896H111.596C108.398 67.9896 105.727 68.5529 103.545 69.6044C102.416 68.8533 101.362 68.0272 100.384 67.0508C96.3208 62.995 96.3208 58.8265 100.459 54.6956L115.735 39.4488L120.513 34.6795L133.644 21.5733C134.133 21.0851 134.133 20.672 133.644 20.1838L129.279 15.8276C128.79 15.3394 128.376 15.3394 127.887 15.8276L114.756 28.9338L109.978 33.7031L94.2138 49.4381C91.9564 51.6913 90.4515 53.9821 89.6614 56.2729C88.3445 56.5357 86.9901 56.7235 85.6356 56.7235C79.8792 56.7235 76.9445 53.7943 76.9445 47.936V1.03145C76.9445 0.355483 76.6436 0.0550537 75.9664 0.0550537H69.796C69.1188 0.0550537 68.8178 0.355483 68.8178 1.03145V48.5744C68.8178 51.7664 69.3822 54.4327 70.4357 56.6109C69.6832 57.7375 68.8554 58.789 67.8772 59.7654C63.8138 63.8211 59.6377 63.8212 55.4991 59.6903L40.2238 44.4435L35.4455 39.6742L22.3149 26.5679C21.8258 26.0797 21.4119 26.0797 20.9228 26.5679L16.5584 30.9242C16.0693 31.4123 16.0693 31.8254 16.5584 32.3136L29.6891 45.4199L34.4674 50.1892L50.2317 65.9242C52.4892 68.1774 54.7841 69.6795 57.0792 70.4681C57.3426 71.7825 57.5307 73.1345 57.5307 74.4864C57.5307 80.2321 54.596 83.1613 48.7267 83.1613H1.77232C1.09509 83.1613 0.794067 83.4617 0.794067 84.1377V90.2965C0.794067 90.9724 1.09509 91.2729 1.77232 91.2729H49.404C52.602 91.2729 55.2733 90.7096 57.4554 89.6581C58.5842 90.4091 59.6376 91.2353 60.6158 92.2117C64.6792 96.2675 64.6792 100.436 60.5406 104.567L45.2654 119.814L40.4871 124.583L27.3564 137.689C26.8673 138.177 26.8673 138.59 27.3564 139.079L31.7208 143.435C32.2099 143.923 32.6238 143.923 33.1129 143.435L46.2435 130.329L51.0218 125.559L66.7862 109.824C69.0436 107.571 70.5485 105.28 71.3386 102.99C72.6555 102.727 74.0099 102.539 75.3644 102.539C81.1208 102.539 84.0555 105.468 84.0555 111.327V158.193C84.0555 158.869 84.3565 159.17 85.0337 159.17H91.204C91.8812 159.17 92.1822 158.869 92.1822 158.193V110.651C92.1822 107.458 91.6178 104.792 90.5643 102.614C91.3168 101.487 92.1446 100.436 93.1228 99.4596C97.1862 95.4038 101.362 95.4038 105.501 99.5347L120.776 114.781L125.554 119.551L138.685 132.657C139.174 133.145 139.588 133.145 140.077 132.657L144.442 128.301C144.931 127.813 144.931 127.399 144.442 126.911L131.311 113.805L126.533 109.036L110.768 93.3008C108.511 91.0475 106.216 89.5454 103.921 88.7568C103.657 87.4424 103.469 86.0905 103.469 84.7385C103.469 78.9928 106.404 76.0636 112.273 76.0636H159.228C159.905 76.0636 160.206 75.7632 160.206 75.0872V68.9284C160.206 68.2525 159.905 67.952 159.228 67.952V67.9896ZM89.2851 93.3759C88.0059 94.6527 86.8772 96.0797 85.8613 97.6194C83.491 96.2675 80.5188 95.5915 76.9822 95.5915C75.2139 95.5915 73.3703 95.8169 71.5644 96.1924C70.8495 93.5636 69.2317 90.9724 66.7485 88.4939C65.4693 87.2171 64.0396 86.0905 62.497 85.0765C63.8515 82.7106 64.5287 79.7439 64.5287 76.2139C64.5287 74.4488 64.303 72.6087 63.9267 70.8061C66.5604 70.0926 69.1564 68.4778 71.6396 65.9993C72.9188 64.7224 74.0475 63.2954 75.0633 61.7557C77.4336 63.1076 80.406 63.7836 83.9426 63.7836C85.7109 63.7836 87.5545 63.5583 89.3604 63.1827C90.0753 65.8115 91.6931 68.4027 94.1763 70.8812C95.4555 72.1581 96.8852 73.2847 98.4278 74.2986C97.0733 76.6645 96.3961 79.6312 96.3961 83.1613C96.3961 84.9263 96.6218 86.7664 96.9981 88.569C94.3644 89.2825 91.7683 90.8973 89.2851 93.3759Z" fill="#FA9DA3"/>
</svg>
