<svg width="153" height="155" viewBox="0 0 153 155" fill="none" xmlns="http://www.w3.org/2000/svg">
<path d="M149.409 74.3689L92.4089 43.988L125.932 35.3882C129.13 34.2616 130.183 32.1211 128.829 29.3421L124.577 18.3013C123.26 15.5599 121.078 14.5084 118.332 15.8228L58.999 41.3592L73.1832 9.85174C74.3119 6.65968 73.2584 4.51912 70.2861 3.8056L58.999 0.200448C56.0267 -0.475518 53.8445 0.538431 53.1673 3.54272L36.1613 65.7691L20.3218 35.0502C18.5158 32.1962 16.1831 31.6704 13.7752 33.5481L3.91781 40.12C1.50989 42.0352 0.983141 44.3635 2.90195 46.767L41.0524 98.8163L7.1158 92.0567C3.76728 91.6811 1.8861 93.1833 1.8861 96.2251L0.907898 108.017C0.907898 111.059 2.41287 112.937 5.4604 112.937L70.0227 115.603L43.5356 137.872C41.1277 140.276 41.1277 142.641 43.5356 144.557L52.1514 152.668C54.5594 154.584 56.9297 154.584 58.8485 152.18L101.213 103.473L102.153 138.022C102.53 141.365 104.411 142.867 107.383 142.191L119.122 140.538C122.094 139.862 123.599 137.985 122.922 135.018L111.183 71.5899L138.837 92.3947C141.696 94.1972 144.029 93.6715 145.383 90.8925L151.403 80.6779C152.72 77.9365 152.193 75.6082 149.447 74.2562L149.409 74.3689ZM100.31 70.6135L100.912 93.5588C98.9554 92.0942 97.2623 92.3947 95.2306 94.4226L77.6604 109.219C77.5851 106.815 76.3059 105.651 73.4089 105.313L50.8722 100.807C52.7158 99.2294 52.8287 97.502 51.2861 95.061L40.7514 74.6693C43.1217 75.12 44.5515 74.1436 45.4921 71.4022L54.898 50.4472C56.0267 52.5878 57.6821 53.076 60.3911 52.1371L82.6643 46.429C81.6861 48.6447 82.3257 50.2219 84.7712 51.7616L103.132 65.5814C100.799 66.1822 99.9337 67.6844 100.272 70.576L100.31 70.6135Z" fill="#FA9DA3"/>
</svg>
