<svg width="157" height="157" viewBox="0 0 157 157" fill="none" xmlns="http://www.w3.org/2000/svg">
<path d="M155.742 74.1506H99.1178L151.415 52.5197C152.054 52.2568 152.205 51.8813 151.942 51.2429L149.534 45.4972C149.27 44.8588 148.894 44.7085 148.254 44.9714L95.9574 66.6023L135.989 26.6452C136.478 26.157 136.478 25.744 135.989 25.2558L131.587 20.862C131.098 20.3738 130.684 20.3738 130.195 20.862L90.1634 60.8191L111.835 8.61949C112.098 7.98108 111.948 7.60554 111.308 7.34267L105.551 4.93923C104.912 4.67636 104.536 4.82657 104.272 5.46499L82.601 57.6646V1.14632C82.601 0.470351 82.3 0.169922 81.6228 0.169922H75.3772C74.7 0.169922 74.399 0.470351 74.399 1.14632V57.6646L52.7277 5.46499C52.4644 4.82657 52.0881 4.67636 51.4485 4.93923L45.6921 7.34267C45.0525 7.60554 44.902 7.98108 45.1654 8.61949L66.8366 60.8191L26.7673 20.8244C26.2782 20.3362 25.8644 20.3362 25.3753 20.8244L20.9733 25.2182C20.4842 25.7064 20.4842 26.1195 20.9733 26.6077L61.005 66.5648L8.70793 44.9339C8.06833 44.671 7.69209 44.8212 7.42873 45.4596L5.02081 51.2053C4.75744 51.8437 4.90793 52.2193 5.54754 52.4822L57.8446 74.1131H1.25843C0.581202 74.1131 0.280212 74.4135 0.280212 75.0895V81.3234C0.280212 81.9993 0.581202 82.2998 1.25843 82.2998H57.8822L5.54754 103.931C4.90793 104.194 4.75744 104.569 5.02081 105.207L7.42873 110.953C7.69209 111.592 8.06833 111.742 8.70793 111.479L61.005 89.848L20.9733 129.805C20.4842 130.293 20.4842 130.706 20.9733 131.195L25.3753 135.588C25.8644 136.077 26.2782 136.077 26.7673 135.588L66.799 95.6313L45.1277 147.831C44.8644 148.469 45.0149 148.845 45.6545 149.108L51.4109 151.511C52.0505 151.774 52.4267 151.624 52.6901 150.985L74.3614 98.7858V155.304C74.3614 155.98 74.6624 156.28 75.3396 156.28H81.5852C82.2624 156.28 82.5634 155.98 82.5634 155.304V98.7858L104.235 151.023C104.498 151.661 104.874 151.812 105.514 151.549L111.27 149.145C111.91 148.882 112.06 148.507 111.797 147.868L90.1257 95.6689L130.157 135.626C130.647 136.114 131.06 136.114 131.55 135.626L135.951 131.232C136.441 130.744 136.441 130.331 135.951 129.843L95.9198 89.8856L148.254 111.516C148.894 111.779 149.27 111.629 149.534 110.991L151.942 105.245C152.205 104.607 152.054 104.231 151.415 103.968L99.1178 82.3373H155.742C156.419 82.3373 156.72 82.0369 156.72 81.3609V75.127C156.72 74.451 156.419 74.1506 155.742 74.1506ZM91.7812 87.0691L87.3792 91.4628L81.6228 93.8287H75.3772L69.6208 91.4628L65.2188 87.0691L62.8485 81.3234V75.127L65.2188 69.3813L69.6208 64.9875L75.3772 62.6216H81.5852L87.3416 64.9875L91.7436 69.3813L94.1139 75.127V81.3234L91.7436 87.0691H91.7812Z" fill="#FA9DA3"/>
</svg>
