<svg width="209" height="111" viewBox="0 0 209 111" fill="none" xmlns="http://www.w3.org/2000/svg">
<path d="M188.274 100.631C187.984 100.964 188.041 100.929 187.725 101.244C187.613 101.355 187.5 101.465 187.386 101.574C187.315 101.642 187.242 101.708 187.17 101.774C185.769 103.07 184.205 104.133 182.526 104.942C182.451 104.979 182.373 105.015 182.296 105.051C180.641 105.821 178.88 106.351 177.052 106.618C176.583 106.229 176.129 105.817 175.694 105.382C173.39 103.079 171.75 100.287 170.867 97.2414C171.926 97.6212 173.067 97.8298 174.255 97.8298C176.04 97.8298 177.719 97.3609 179.174 96.5425C179.26 96.4944 179.345 96.4445 179.431 96.3928C179.62 96.2786 179.805 96.1574 179.987 96.0308C180.053 95.9845 180.119 95.9381 180.183 95.89C182.192 94.419 183.46 92.5255 183.949 89.9902C184.332 93.9073 185.71 97.6283 188.271 100.629L188.274 100.631Z" fill="#FF7276"/>
<path d="M208.219 96.8955C207.791 98.4859 207.158 100.01 206.332 101.437C205.507 102.863 204.49 104.19 203.294 105.386C202.827 105.853 202.34 106.292 201.836 106.704C199.962 106.495 198.15 106.014 196.446 105.279C196.365 105.245 196.285 105.211 196.205 105.176C194.386 104.361 192.693 103.255 191.184 101.884C191.109 101.815 191.033 101.743 190.958 101.674C190.808 101.535 190.662 101.394 190.516 101.248C190.202 100.932 189.899 100.608 189.608 100.274C189.555 100.214 189.505 100.153 189.451 100.092C186.83 97.0096 185.277 93.2173 184.987 89.1754C186.415 88.3623 188.068 87.897 189.826 87.897C191.293 87.897 192.687 88.2215 193.939 88.8009C193.953 88.8081 193.966 88.8152 193.98 88.8206C194.01 89.1147 194.055 89.4036 194.11 89.6906C194.645 92.4578 196.317 94.8237 198.621 96.2804C198.689 96.3232 198.756 96.3642 198.824 96.4052C199.077 96.5568 199.338 96.6994 199.605 96.8296C199.687 96.8688 199.769 96.908 199.853 96.9455C201.113 97.516 202.511 97.8334 203.982 97.8334C205.453 97.8334 206.929 97.4982 208.217 96.8973L208.219 96.8955Z" fill="#FA9DA3"/>
<path d="M208.498 90.6569C207.077 91.4592 205.435 91.9175 203.69 91.9175C202.194 91.9175 200.776 91.5805 199.505 90.9796C199.209 87.7971 197.424 85.0406 194.857 83.4146C194.789 83.3718 194.721 83.3308 194.654 83.2898C194.409 83.1436 194.16 83.0063 193.903 82.8797C193.821 82.8405 193.739 82.8012 193.657 82.7638C193.493 82.6889 193.327 82.6194 193.158 82.5516C193.067 82.516 192.974 82.4821 192.881 82.4482C191.822 82.0685 190.681 81.8598 189.494 81.8598C188.105 81.8598 186.78 82.1433 185.575 82.655C185.493 82.6889 185.411 82.7264 185.331 82.762C185.306 82.7727 185.282 82.7852 185.259 82.7959C185.165 82.8387 185.072 82.885 184.979 82.9314C184.555 83.1454 184.148 83.3878 183.763 83.6571C183.697 83.7034 183.631 83.7498 183.567 83.7979C181.276 85.4757 179.718 88.0984 179.474 91.0884C178.268 91.6179 176.936 91.9139 175.537 91.9139C173.697 91.9139 171.974 91.404 170.5 90.5196C170.828 85.9571 172.761 81.7136 176.027 78.4455C176.139 78.335 176.252 78.2244 176.366 78.1157C176.437 78.0479 176.51 77.9819 176.582 77.916C178.129 76.486 179.875 75.3378 181.754 74.5016C181.836 74.466 181.916 74.4321 181.998 74.3964C183.494 73.7563 185.072 73.3088 186.7 73.0699C186.687 73.0592 186.675 73.0503 186.662 73.0396C186.677 73.0503 186.689 73.061 186.703 73.0699C186.807 73.0539 186.908 73.0378 187.012 73.0218C187.012 73.0218 187.015 73.0236 187.017 73.0253C187.834 72.9201 188.661 72.8649 189.497 72.8649C190.109 72.8649 190.715 72.8934 191.316 72.9504C191.426 72.9611 191.535 72.9718 191.644 72.9843C193.561 73.1983 195.413 73.6957 197.152 74.4606C197.232 74.4945 197.31 74.5319 197.39 74.5676C199.166 75.377 200.819 76.4629 202.295 77.8054C202.37 77.875 202.447 77.9463 202.522 78.0158C202.672 78.1549 202.818 78.2957 202.964 78.4419C206.262 81.7404 208.2 86.0373 208.5 90.6498L208.498 90.6569Z" fill="#FA9DA3"/>
<path d="M189.583 110.94C192.43 110.94 195.13 110.314 197.556 109.194C197.35 109.091 197.143 108.991 196.932 108.895C196.856 108.861 196.781 108.825 196.704 108.793C195.048 108.066 193.283 107.591 191.455 107.386C191.352 107.374 191.246 107.363 191.141 107.353C190.569 107.299 189.991 107.271 189.408 107.271C188.611 107.271 187.823 107.322 187.044 107.424C187.044 107.424 187.041 107.422 187.039 107.42C186.941 107.435 186.843 107.449 186.745 107.465C186.732 107.456 186.72 107.445 186.707 107.436C186.72 107.445 186.73 107.456 186.743 107.465C185.192 107.691 183.687 108.117 182.262 108.729C182.186 108.763 182.107 108.795 182.03 108.829C181.829 108.918 181.627 109.012 181.43 109.111C183.901 110.284 186.664 110.94 189.581 110.94H189.583Z" fill="#FA9DA3"/>
<path d="M32.2625 22.9066C35.3999 26.1964 37.0079 30.637 37.0079 36.0709C37.0079 41.5048 35.3999 45.8666 32.2625 49.1614C29.1251 52.4512 25.0681 54.138 20.0178 54.138C14.9674 54.138 11.5202 52.6824 8.99753 49.7761V68.0694C8.99753 68.6054 8.76641 68.8365 8.23039 68.8365H1.26714C0.731124 68.8365 0.5 68.6054 0.5 68.0694V19.7741C0.5 19.2381 0.731124 19.007 1.26714 19.007H8.23039C8.76641 19.007 8.99753 19.2381 8.99753 19.7741V22.223C11.5252 19.3905 15.1986 17.9349 20.0178 17.9349C24.837 17.9349 29.1251 19.6167 32.2625 22.9115V22.9066ZM28.2842 35.9922C28.2842 29.7912 24.2272 25.5817 18.1835 25.5817C14.1265 25.5817 10.4531 27.5733 8.99753 30.6321V41.3474C10.4531 44.411 14.1265 46.3977 18.1835 46.3977C24.2321 46.3977 28.2842 42.1883 28.2842 35.9873V35.9922Z" fill="#FF7276"/>
<path d="M38.4635 50.3809C38.0799 50.1498 38.0061 49.8449 38.1586 49.3876L40.1502 44.6421C40.3813 44.1848 40.6862 44.1061 41.1435 44.411C44.1285 46.4026 47.6495 47.3959 51.6278 47.3959C55.6061 47.3959 57.6764 46.1715 57.6764 43.7225C57.6764 42.8816 57.3715 42.1145 56.8355 41.5785C55.8421 40.4327 55.2274 40.4327 53.4669 40.0491L47.9544 38.5935C42.0631 37.1379 38.6159 34.3054 38.6159 28.7191C38.6159 22.2918 44.1285 17.925 52.3162 17.925C56.8305 17.925 60.8875 18.9184 64.4872 20.91C64.9445 21.1411 65.0969 21.5247 64.8707 21.982L62.8791 26.7275C62.648 27.2635 62.3431 27.3422 61.8858 27.0324C59.132 25.4243 56.0683 24.5834 52.7785 24.5834C49.1051 24.5834 47.2659 25.8079 47.2659 28.1831C47.2659 28.9502 47.497 29.56 47.9544 30.096C48.9477 31.0156 49.4837 31.168 51.3229 31.5516L57.5239 33.0809C63.4938 34.5365 66.4788 37.9051 66.4788 43.0292C66.4788 49.9924 60.74 54.1281 51.7851 54.1281C46.2726 54.1281 41.8369 52.9036 38.4684 50.376L38.4635 50.3809Z" fill="#FF7276"/>
<path d="M73.5158 12.3436C70.0735 12.3436 67.5459 9.89468 67.5459 6.60484C67.5459 3.315 70.0735 0.939819 73.5158 0.939819C76.9581 0.939819 79.4857 3.315 79.4857 6.60484C79.4857 9.89468 76.9581 12.3436 73.5158 12.3436ZM69.9948 53.1397C69.4588 53.1397 69.2277 52.9085 69.2277 52.3725V19.7691C69.2277 19.2331 69.4588 19.002 69.9948 19.002H76.9581C77.4941 19.002 77.7252 19.2331 77.7252 19.7691V52.3725C77.7252 52.9085 77.4941 53.1397 76.9581 53.1397H69.9948Z" fill="#FF7276"/>
<path d="M122.421 4.8394C122.421 4.30339 122.652 4.07227 123.188 4.07227H130.151C130.687 4.07227 130.918 4.30339 130.918 4.8394V52.3676C130.918 52.9036 130.687 53.1347 130.151 53.1347H123.188C122.652 53.1347 122.421 52.9036 122.421 52.3676V49.7662C119.893 52.6724 116.22 54.128 111.401 54.128C106.581 54.128 102.215 52.4462 99.0772 49.1515C95.9398 45.8616 94.4104 41.4998 94.4104 36.061C94.4104 30.6221 95.9398 26.1865 99.0772 22.8967C102.215 19.6068 106.35 17.9201 111.401 17.9201C116.451 17.9201 119.898 19.3757 122.421 22.2082V4.83449V4.8394ZM122.421 41.4998V30.5533C120.813 27.4897 117.218 25.5767 113.235 25.5767C107.186 25.5767 103.134 29.7862 103.134 35.9872C103.134 42.1882 107.191 46.3976 113.235 46.3976C117.213 46.3976 120.887 44.4847 122.421 41.4998Z" fill="#FF7276"/>
<path d="M138.418 23.0589C141.86 19.6167 146.3 17.9299 151.887 17.9299C157.473 17.9299 161.914 19.6117 165.356 23.0589C168.798 26.4275 170.559 30.7893 170.559 36.0708C170.559 41.3522 168.798 45.6403 165.356 49.0826C161.914 52.4512 157.473 54.133 151.887 54.133C146.3 54.133 141.86 52.4512 138.418 49.0826C134.975 45.6403 133.289 41.3522 133.289 36.0708C133.289 30.7893 134.97 26.4275 138.418 23.0589ZM161.84 35.9921C161.84 29.9435 157.783 25.5816 151.892 25.5816C146 25.5816 142.017 29.8698 142.017 35.9921C142.017 42.1145 146.074 46.4763 151.892 46.4763C157.709 46.4763 161.84 42.1145 161.84 35.9921Z" fill="#FF7276"/>
<path d="M79.1907 75.8629H72.1488C71.6128 75.8629 71.3816 76.094 71.3816 76.63V99.4376C69.6211 102.118 67.0198 103.416 63.4988 103.416C58.6009 103.416 56.152 100.662 56.152 95.0708V76.6251C56.152 76.0891 55.9209 75.8579 55.3848 75.8579H48.4216C48.4216 75.8579 48.3872 75.8629 48.3675 75.8629C48.3577 75.8629 48.3429 75.8579 48.3331 75.8579H35.8474C35.6065 75.8579 35.4147 75.6662 35.4147 75.4252V73.409C35.4147 69.1996 37.5587 67.1342 41.8419 67.1342C43.145 67.1342 44.2171 67.2866 45.058 67.5178C45.594 67.5964 45.8989 67.3653 45.8989 66.8293V61.6265C45.8989 61.1692 45.6677 60.8594 45.2842 60.707C43.3712 60.1709 41.6108 59.9398 40.0027 59.9398C32.0412 59.9398 26.8385 64.0706 26.8385 72.2632V75.4301C26.8385 75.6711 26.6467 75.8629 26.4057 75.8629H18.2672C17.8443 75.8629 17.5 76.2071 17.5 76.63V82.5507C17.5 82.7917 17.6918 82.9835 17.9327 82.9835H26.4057C26.6467 82.9835 26.8385 83.1753 26.8385 83.4162V109.568C26.8385 109.809 27.0302 110.001 27.2712 110.001H34.977C35.218 110.001 35.4097 109.809 35.4097 109.568V83.4162C35.4097 83.1753 35.6015 82.9835 35.8425 82.9835H47.6544V96.5313C47.6544 105.717 52.4786 110.999 60.8187 110.999C65.0282 110.999 68.5491 109.696 71.3816 107.173V109.238C71.3816 109.774 71.6128 110.005 72.1488 110.005H79.1907C79.7267 110.005 79.9578 109.774 79.9578 109.238V76.6349C79.9578 76.0989 79.7267 75.8678 79.1907 75.8678V75.8629Z" fill="#FF7276"/>
<path d="M110.875 82.2163C110.875 82.7523 110.644 82.9834 110.108 82.9834H99.1615V97.1411C99.1615 101.429 101.306 103.568 105.667 103.568C106.813 103.568 108.116 103.416 109.646 103.032C110.182 102.88 110.487 103.111 110.487 103.721V109.233C110.487 109.769 110.255 110 109.798 110.074C107.654 110.61 105.51 110.915 103.371 110.915C95.1832 110.915 90.5901 106.627 90.5901 98.1344V82.9785H81.6353C81.0993 82.9785 80.8682 82.7474 80.8682 82.2114V76.625C80.8682 76.089 81.0993 75.8579 81.6353 75.8579H90.5901V61.7002C90.5901 61.1642 90.8213 60.9331 91.3573 60.9331H98.3992C98.9352 60.9331 99.1664 61.1642 99.1664 61.7002V75.8579H110.113C110.649 75.8579 110.88 76.089 110.88 76.625V82.2114L110.875 82.2163Z" fill="#FF7276"/>
<path d="M136.362 76.6251C136.362 76.0891 136.594 75.8579 137.13 75.8579H144.172C144.708 75.8579 144.939 76.0891 144.939 76.6251V109.228C144.939 109.764 144.708 109.996 144.172 109.996H137.13C136.594 109.996 136.362 109.764 136.362 109.228V107.163C133.53 109.691 130.009 110.989 125.8 110.989C117.454 110.989 112.635 105.707 112.635 96.5215V76.6202C112.635 76.0842 112.866 75.853 113.402 75.853H120.366C120.902 75.853 121.133 76.0842 121.133 76.6202V95.0659C121.133 100.652 123.582 103.411 128.48 103.411C132.001 103.411 134.602 102.108 136.362 99.4327V76.6251Z" fill="#FF7276"/>
<path d="M170.19 75.4793C170.648 75.5579 170.879 75.7841 170.879 76.3202V82.5212C170.879 83.0572 170.574 83.2883 170.038 83.2097C169.197 83.0572 168.277 82.9785 167.436 82.9785C162.691 82.9785 159.401 84.8915 157.641 88.6435L157.562 109.233C157.562 109.769 157.331 110 156.795 110H149.832C149.296 110 149.064 109.769 149.064 109.233V76.63C149.064 76.094 149.296 75.8628 149.832 75.8628H156.874C157.41 75.8628 157.641 76.094 157.641 76.63V79.9985C159.706 76.8611 163.001 75.2531 167.436 75.2531C168.43 75.2531 169.349 75.3317 170.19 75.4842V75.4793Z" fill="#FF7276"/>
</svg>
