<svg width="105" height="106" viewBox="0 0 105 106" fill="none" xmlns="http://www.w3.org/2000/svg">
<path d="M49.1192 77.5064C48.3176 78.426 48.475 78.3276 47.6046 79.198C47.2948 79.5029 46.985 79.8078 46.6703 80.1078C46.4736 80.2947 46.2719 80.4766 46.0752 80.6586C42.21 84.2336 37.8973 87.1645 33.265 89.397C33.0585 89.5003 32.8421 89.5987 32.6307 89.697C28.0672 91.8214 23.2086 93.2819 18.1681 94.0196C16.8748 92.9475 15.6208 91.8116 14.4209 90.6117C8.06747 84.2582 3.54332 76.5573 1.10913 68.1581C4.03016 69.2056 7.17739 69.7809 10.4525 69.7809C15.375 69.7809 20.0073 68.4876 24.02 66.2305C24.2561 66.0977 24.4921 65.96 24.7281 65.8174C25.2494 65.5027 25.7608 65.1683 26.2624 64.8191C26.4444 64.6913 26.6263 64.5634 26.8033 64.4306C32.3454 60.3737 35.8418 55.1512 37.1892 48.1584C38.2465 58.9623 42.0478 69.2252 49.1094 77.5015L49.1192 77.5064Z" fill="#FF7276"/>
<path d="M104.127 67.204C102.947 71.5905 101.201 75.795 98.9242 79.729C96.6474 83.6631 93.8444 87.3217 90.5447 90.6214C89.2563 91.9098 87.9138 93.1195 86.5221 94.2555C81.3538 93.6801 76.3576 92.3524 71.6564 90.3264C71.4351 90.2329 71.2138 90.1395 70.9925 90.0411C65.9766 87.7938 61.3049 84.7449 57.1447 80.9633C56.9381 80.7716 56.7267 80.5748 56.5202 80.3831C56.1071 79.9995 55.7038 79.611 55.3006 79.2078C54.4351 78.3374 53.5991 77.4424 52.7976 76.5228C52.65 76.3556 52.5124 76.1884 52.3648 76.0212C45.136 67.5187 40.8528 57.0591 40.0513 45.911C43.9902 43.6686 48.5488 42.3851 53.3975 42.3851C57.4447 42.3851 61.2902 43.2801 64.7423 44.8783C64.7816 44.898 64.8161 44.9177 64.8554 44.9324C64.939 45.7438 65.0619 46.5405 65.2144 47.3322C66.6897 54.9642 71.3023 61.4898 77.6558 65.5075C77.8427 65.6255 78.0295 65.7386 78.2164 65.8517C78.9147 66.2697 79.6327 66.6631 80.3703 67.0221C80.5965 67.1303 80.8227 67.2385 81.0538 67.3417C84.5305 68.9153 88.3859 69.7907 92.4429 69.7907C96.4999 69.7907 100.572 68.8662 104.122 67.2089L104.127 67.204Z" fill="#FA9DA3"/>
<path d="M104.899 49.9976C100.98 52.2105 96.4507 53.4743 91.6364 53.4743C87.5106 53.4743 83.6012 52.5448 80.0949 50.8876C79.2786 42.1098 74.3562 34.5073 67.2749 30.0225C67.088 29.9044 66.9012 29.7913 66.7143 29.6782C66.0406 29.275 65.3521 28.8963 64.644 28.5472C64.4178 28.439 64.1916 28.3308 63.9654 28.2275C63.513 28.021 63.0556 27.8292 62.5885 27.6424C62.3377 27.544 62.0819 27.4506 61.8262 27.3571C58.9052 26.3097 55.758 25.7343 52.4829 25.7343C48.6521 25.7343 44.9984 26.5162 41.6741 27.9276C41.4479 28.021 41.2217 28.1243 41.0004 28.2226C40.9316 28.2521 40.8676 28.2866 40.8037 28.3161C40.5431 28.4341 40.2874 28.5619 40.0316 28.6898C38.8613 29.2799 37.7401 29.9487 36.6779 30.6912C36.4959 30.8191 36.314 30.947 36.1369 31.0797C29.8179 35.7071 25.5199 42.9409 24.8462 51.1876C21.522 52.6481 17.8486 53.4644 13.9883 53.4644C8.91336 53.4644 4.16301 52.058 0.0961914 49.6189C1.00102 37.0349 6.33165 25.3311 15.3406 16.3172C15.6504 16.0123 15.9602 15.7075 16.2749 15.4075C16.4716 15.2206 16.6733 15.0387 16.87 14.8567C21.1384 10.9128 25.9527 7.74594 31.1358 5.43961C31.362 5.34126 31.5833 5.24782 31.8095 5.14947C35.9353 3.38407 40.2874 2.14976 44.7771 1.49081C44.7427 1.46131 44.7082 1.43672 44.6738 1.40721C44.7132 1.43672 44.7476 1.46622 44.7869 1.49081C45.0721 1.44655 45.3524 1.4023 45.6376 1.35804C45.6376 1.35804 45.6475 1.36296 45.6524 1.36787C47.9046 1.07774 50.1864 0.925293 52.4927 0.925293C54.1794 0.925293 55.8514 1.00397 57.5086 1.16134C57.8135 1.19084 58.1135 1.22035 58.4135 1.25477C63.6998 1.84488 68.8092 3.21687 73.6038 5.3265C73.8251 5.41994 74.0414 5.52321 74.2627 5.62156C79.1606 7.85413 83.7192 10.8489 87.7909 14.5518C87.9975 14.7436 88.2089 14.9403 88.4155 15.1321C88.8285 15.5157 89.2318 15.9042 89.635 16.3074C98.7325 25.4049 104.078 37.2562 104.904 49.9779L104.899 49.9976Z" fill="#FA9DA3"/>
<path d="M52.7287 105.94C60.582 105.94 68.0272 104.214 74.72 101.125C74.1496 100.84 73.5791 100.565 72.9988 100.299C72.7874 100.206 72.5809 100.107 72.3694 100.019C67.801 98.0126 62.9326 96.7045 57.8921 96.139C57.6069 96.1046 57.3168 96.0751 57.0266 96.0455C55.4481 95.898 53.8548 95.8193 52.2468 95.8193C50.0486 95.8193 47.8751 95.9619 45.7261 96.2422C45.7261 96.2422 45.7163 96.2373 45.7113 96.2324C45.4409 96.2718 45.1704 96.3111 44.8999 96.3554C44.8655 96.3308 44.8311 96.3013 44.7967 96.2767C44.8311 96.3013 44.8606 96.3308 44.895 96.3554C40.6168 96.9799 36.4663 98.1552 32.5372 99.8419C32.3258 99.9353 32.1094 100.024 31.8979 100.117C31.3423 100.363 30.7866 100.624 30.2407 100.894C37.0565 104.13 44.6787 105.94 52.7238 105.94H52.7287Z" fill="#FA9DA3"/>
</svg>
