<svg width="517" height="106" viewBox="0 0 517 106" fill="none" xmlns="http://www.w3.org/2000/svg">
<path d="M49.4105 76.5811C48.6089 77.5007 48.7663 77.4023 47.8959 78.2728C47.5861 78.5776 47.2762 78.8825 46.9615 79.1825C46.7648 79.3694 46.5632 79.5513 46.3665 79.7333C42.5013 83.3083 38.1886 86.2392 33.5563 88.4718C33.3497 88.575 33.1334 88.6734 32.9219 88.7717C28.3584 90.8961 23.4999 92.3566 18.4594 93.0943C17.1661 92.0222 15.9121 90.8863 14.7122 89.6864C8.35873 83.3329 3.83458 75.632 1.40039 67.2328C4.32142 68.2803 7.46865 68.8556 10.7437 68.8556C15.6662 68.8556 20.2985 67.5623 24.3113 65.3052C24.5473 65.1724 24.7834 65.0347 25.0194 64.8921C25.5407 64.5774 26.0521 64.243 26.5537 63.8938C26.7356 63.766 26.9176 63.6381 27.0946 63.5053C32.6367 59.4484 36.1331 54.2259 37.4805 47.2332C38.5378 58.037 42.339 68.2999 49.4006 76.5762L49.4105 76.5811Z" fill="#FF7276"/>
<path d="M104.418 66.2787C103.238 70.6652 101.492 74.8697 99.2155 78.8037C96.9387 82.7378 94.1356 86.3964 90.836 89.6961C89.5476 90.9845 88.2051 92.1942 86.8134 93.3302C81.6451 92.7548 76.6488 91.4271 71.9476 89.4011C71.7264 89.3076 71.5051 89.2142 71.2838 89.1158C66.2679 86.8685 61.5962 83.8196 57.4359 80.038C57.2294 79.8463 57.018 79.6496 56.8114 79.4578C56.3983 79.0742 55.9951 78.6857 55.5919 78.2825C54.7264 77.4121 53.8904 76.5171 53.0888 75.5975C52.9413 75.4303 52.8036 75.2631 52.6561 75.0959C45.4273 66.5935 41.1441 56.1338 40.3425 44.9857C44.2815 42.7433 48.8401 41.4598 53.6888 41.4598C57.7359 41.4598 61.5814 42.3548 65.0336 43.953C65.0729 43.9727 65.1073 43.9924 65.1467 44.0071C65.2303 44.8185 65.3532 45.6152 65.5056 46.4069C66.9809 54.0389 71.5936 60.5645 77.9471 64.5822C78.1339 64.7002 78.3208 64.8133 78.5077 64.9264C79.206 65.3444 79.9239 65.7378 80.6616 66.0968C80.8878 66.205 81.114 66.3132 81.3451 66.4164C84.8218 67.99 88.6772 68.8654 92.7341 68.8654C96.7911 68.8654 100.863 67.9409 104.413 66.2836L104.418 66.2787Z" fill="#FA9DA3"/>
<path d="M105.19 49.0723C101.271 51.2852 96.742 52.549 91.9277 52.549C87.8019 52.549 83.8924 51.6196 80.3862 49.9623C79.5699 41.1845 74.6474 33.582 67.5661 29.0972C67.3793 28.9791 67.1924 28.866 67.0055 28.7529C66.3318 28.3497 65.6434 27.971 64.9352 27.6219C64.709 27.5137 64.4828 27.4055 64.2566 27.3023C63.8042 27.0957 63.3469 26.9039 62.8797 26.7171C62.6289 26.6187 62.3732 26.5253 62.1175 26.4318C59.1965 25.3844 56.0492 24.8091 52.7741 24.8091C48.9434 24.8091 45.2896 25.5909 41.9654 27.0023C41.7392 27.0957 41.5129 27.199 41.2917 27.2973C41.2228 27.3268 41.1589 27.3613 41.095 27.3908C40.8343 27.5088 40.5786 27.6366 40.3229 27.7645C39.1525 28.3546 38.0313 29.0234 36.9691 29.7659C36.7872 29.8938 36.6052 30.0217 36.4282 30.1544C30.1091 34.7819 25.8112 42.0156 25.1375 50.2623C21.8132 51.7228 18.1398 52.5391 14.2795 52.5391C9.20462 52.5391 4.45427 51.1327 0.387451 48.6936C1.29228 36.1096 6.62291 24.4058 15.6319 15.3919C15.9417 15.0871 16.2515 14.7822 16.5662 14.4822C16.7629 14.2953 16.9645 14.1134 17.1612 13.9314C21.4297 9.98755 26.2439 6.82065 31.427 4.51431C31.6533 4.41596 31.8745 4.32253 32.1007 4.22418C36.2266 2.45878 40.5786 1.22447 45.0683 0.565519C45.0339 0.536013 44.9995 0.511426 44.9651 0.48192C45.0044 0.511426 45.0388 0.540931 45.0782 0.565519C45.3634 0.521261 45.6437 0.477003 45.9289 0.432745C45.9289 0.432745 45.9387 0.437662 45.9437 0.44258C48.1959 0.152444 50.4776 0 52.784 0C54.4707 0 56.1427 0.0786809 57.7999 0.236043C58.1048 0.265548 58.4047 0.295053 58.7047 0.329476C63.9911 0.919582 69.1004 2.29158 73.895 4.40121C74.1163 4.49464 74.3327 4.59791 74.554 4.69626C79.4519 6.92883 84.0104 9.92362 88.0822 13.6265C88.2887 13.8183 88.5002 14.015 88.7067 14.2068C89.1198 14.5904 89.523 14.9789 89.9263 15.3821C99.0237 24.4796 104.369 36.3309 105.195 49.0526L105.19 49.0723Z" fill="#FA9DA3"/>
<path d="M53.02 105.014C60.8733 105.014 68.3185 103.288 75.0112 100.2C74.4408 99.9149 73.8704 99.6395 73.2901 99.3739C73.0787 99.2805 72.8721 99.1822 72.6607 99.0936C68.0923 97.0873 63.2239 95.7792 58.1834 95.2137C57.8982 95.1793 57.608 95.1498 57.3179 95.1203C55.7394 94.9727 54.1461 94.894 52.538 94.894C50.3399 94.894 48.1663 95.0367 46.0174 95.317C46.0174 95.317 46.0075 95.312 46.0026 95.3071C45.7321 95.3465 45.4617 95.3858 45.1912 95.4301C45.1568 95.4055 45.1224 95.376 45.0879 95.3514C45.1224 95.376 45.1519 95.4055 45.1863 95.4301C40.908 96.0546 36.7576 97.2299 32.8285 98.9166C32.617 99.01 32.4007 99.0986 32.1892 99.192C31.6335 99.4379 31.0778 99.6985 30.532 99.969C37.3477 103.205 44.9699 105.014 53.015 105.014H53.02Z" fill="#FA9DA3"/>
<path d="M175.959 40.5404C179.096 43.8302 180.704 48.2708 180.704 53.7047C180.704 59.1386 179.096 63.5004 175.959 66.7952C172.821 70.085 168.764 71.7718 163.714 71.7718C158.664 71.7718 155.217 70.3162 152.694 67.4099V85.7032C152.694 86.2392 152.463 86.4703 151.927 86.4703H144.963C144.427 86.4703 144.196 86.2392 144.196 85.7032V37.4079C144.196 36.8719 144.427 36.6408 144.963 36.6408H151.927C152.463 36.6408 152.694 36.8719 152.694 37.4079V39.8568C155.221 37.0243 158.895 35.5687 163.714 35.5687C168.533 35.5687 172.821 37.2505 175.959 40.5453V40.5404ZM171.98 53.626C171.98 47.4249 167.923 43.2155 161.88 43.2155C157.823 43.2155 154.149 45.2071 152.694 48.2658V58.9812C154.149 62.0448 157.823 64.0315 161.88 64.0315C167.928 64.0315 171.98 59.8221 171.98 53.6211V53.626Z" fill="#FF7276"/>
<path d="M182.16 68.0147C181.776 67.7836 181.702 67.4787 181.855 67.0213L183.846 62.2759C184.078 61.8186 184.383 61.7399 184.84 62.0448C187.825 64.0364 191.346 65.0297 195.324 65.0297C199.302 65.0297 201.373 63.8053 201.373 61.3563C201.373 60.5154 201.068 59.7483 200.532 59.2123C199.538 58.0665 198.924 58.0665 197.163 57.6829L191.651 56.2273C185.759 54.7717 182.312 51.9392 182.312 46.3529C182.312 39.9256 187.825 35.5588 196.013 35.5588C200.527 35.5588 204.584 36.5522 208.183 38.5438C208.641 38.7749 208.793 39.1585 208.567 39.6158L206.575 44.3613C206.344 44.8973 206.039 44.976 205.582 44.6661C202.828 43.0581 199.765 42.2172 196.475 42.2172C192.801 42.2172 190.962 43.4417 190.962 45.8169C190.962 46.584 191.193 47.1938 191.651 47.7298C192.644 48.6494 193.18 48.8018 195.019 49.1854L201.22 50.7147C207.19 52.1703 210.175 55.5389 210.175 60.6629C210.175 67.6262 204.436 71.7619 195.481 71.7619C189.969 71.7619 185.533 70.5374 182.165 68.0098L182.16 68.0147Z" fill="#FF7276"/>
<path d="M217.212 29.9774C213.77 29.9774 211.242 27.5285 211.242 24.2386C211.242 20.9488 213.77 18.5736 217.212 18.5736C220.654 18.5736 223.182 20.9488 223.182 24.2386C223.182 27.5285 220.654 29.9774 217.212 29.9774ZM213.691 70.7734C213.155 70.7734 212.924 70.5423 212.924 70.0063V37.4029C212.924 36.8669 213.155 36.6358 213.691 36.6358H220.654C221.19 36.6358 221.422 36.8669 221.422 37.4029V70.0063C221.422 70.5423 221.19 70.7734 220.654 70.7734H213.691Z" fill="#FF7276"/>
<path d="M266.117 22.4732C266.117 21.9372 266.348 21.7061 266.884 21.7061H273.847C274.383 21.7061 274.615 21.9372 274.615 22.4732V70.0013C274.615 70.5374 274.383 70.7685 273.847 70.7685H266.884C266.348 70.7685 266.117 70.5374 266.117 70.0013V67.4C263.589 70.3062 259.916 71.7618 255.097 71.7618C250.278 71.7618 245.911 70.08 242.773 66.7853C239.636 63.4954 238.107 59.1336 238.107 53.6947C238.107 48.2559 239.636 43.8203 242.773 40.5304C245.911 37.2406 250.047 35.5539 255.097 35.5539C260.147 35.5539 263.594 37.0095 266.117 39.842V22.4683V22.4732ZM266.117 59.1336V48.1871C264.509 45.1234 260.914 43.2105 256.931 43.2105C250.882 43.2105 246.83 47.4199 246.83 53.621C246.83 59.822 250.887 64.0314 256.931 64.0314C260.909 64.0314 264.583 62.1185 266.117 59.1336Z" fill="#FF7276"/>
<path d="M282.114 40.6927C285.556 37.2504 289.997 35.5637 295.583 35.5637C301.169 35.5637 305.61 37.2455 309.052 40.6927C312.495 44.0613 314.255 48.4231 314.255 53.7046C314.255 58.986 312.495 63.2741 309.052 66.7164C305.61 70.0849 301.169 71.7667 295.583 71.7667C289.997 71.7667 285.556 70.0849 282.114 66.7164C278.672 63.2741 276.985 58.986 276.985 53.7046C276.985 48.4231 278.667 44.0613 282.114 40.6927ZM305.536 53.6259C305.536 47.5773 301.479 43.2154 295.588 43.2154C289.697 43.2154 285.714 47.5035 285.714 53.6259C285.714 59.7482 289.771 64.1101 295.588 64.1101C301.405 64.1101 305.536 59.7482 305.536 53.6259Z" fill="#FF7276"/>
<path d="M388.958 36.6358H381.916C381.38 36.6358 381.148 36.8669 381.148 37.4029V60.2106C379.388 62.8906 376.787 64.1889 373.266 64.1889C368.368 64.1889 365.919 61.435 365.919 55.8438V37.398C365.919 36.862 365.688 36.6309 365.152 36.6309H358.188C358.188 36.6309 358.154 36.6358 358.134 36.6358C358.125 36.6358 358.11 36.6309 358.1 36.6309H345.614C345.373 36.6309 345.182 36.4391 345.182 36.1981V34.1819C345.182 29.9725 347.326 27.9071 351.609 27.9071C352.912 27.9071 353.984 28.0596 354.825 28.2907C355.361 28.3694 355.666 28.1383 355.666 27.6023V22.3995C355.666 21.9422 355.435 21.6323 355.051 21.4799C353.138 20.9439 351.378 20.7128 349.77 20.7128C341.808 20.7128 336.605 24.8435 336.605 33.0362V36.2031C336.605 36.444 336.414 36.6358 336.173 36.6358H328.034C327.611 36.6358 327.267 36.98 327.267 37.4029V43.3237C327.267 43.5646 327.459 43.7564 327.7 43.7564H336.173C336.414 43.7564 336.605 43.9482 336.605 44.1892V70.3407C336.605 70.5817 336.797 70.7735 337.038 70.7735H344.744C344.985 70.7735 345.177 70.5817 345.177 70.3407V44.1892C345.177 43.9482 345.368 43.7564 345.609 43.7564H357.421V57.3043C357.421 66.4903 362.245 71.7717 370.586 71.7717C374.795 71.7717 378.316 70.4686 381.148 67.9459V70.0112C381.148 70.5473 381.38 70.7784 381.916 70.7784H388.958C389.494 70.7784 389.725 70.5473 389.725 70.0112V37.4079C389.725 36.8718 389.494 36.6407 388.958 36.6407V36.6358Z" fill="#FF7276"/>
<path d="M420.641 42.9892C420.641 43.5252 420.41 43.7564 419.874 43.7564H408.928V57.914C408.928 62.2021 411.072 64.3412 415.434 64.3412C416.58 64.3412 417.883 64.1888 419.412 63.8052C419.948 63.6528 420.253 63.8839 420.253 64.4937V70.0063C420.253 70.5423 420.022 70.7734 419.564 70.8472C417.42 71.3832 415.276 71.6881 413.137 71.6881C404.95 71.6881 400.357 67.4 400.357 58.9073V43.7514H391.402C390.866 43.7514 390.635 43.5203 390.635 42.9843V37.398C390.635 36.862 390.866 36.6308 391.402 36.6308H400.357V22.4732C400.357 21.9372 400.588 21.7061 401.124 21.7061H408.166C408.702 21.7061 408.933 21.9372 408.933 22.4732V36.6308H419.879C420.415 36.6308 420.646 36.862 420.646 37.398V42.9843L420.641 42.9892Z" fill="#FF7276"/>
<path d="M446.129 37.398C446.129 36.862 446.36 36.6309 446.896 36.6309H453.938C454.474 36.6309 454.705 36.862 454.705 37.398V70.0014C454.705 70.5374 454.474 70.7685 453.938 70.7685H446.896C446.36 70.7685 446.129 70.5374 446.129 70.0014V67.936C443.297 70.4637 439.776 71.7619 435.566 71.7619C427.221 71.7619 422.402 66.4804 422.402 57.2945V37.3931C422.402 36.8571 422.633 36.626 423.169 36.626H430.132C430.668 36.626 430.899 36.8571 430.899 37.3931V55.8389C430.899 61.4252 433.348 64.1839 438.246 64.1839C441.767 64.1839 444.369 62.8808 446.129 60.2056V37.398Z" fill="#FF7276"/>
<path d="M479.957 36.2522C480.414 36.3309 480.646 36.5571 480.646 37.0931V43.2941C480.646 43.8302 480.341 44.0613 479.805 43.9826C478.964 43.8302 478.044 43.7515 477.203 43.7515C472.458 43.7515 469.168 45.6644 467.408 49.4165L467.329 70.0063C467.329 70.5423 467.098 70.7734 466.562 70.7734H459.598C459.062 70.7734 458.831 70.5423 458.831 70.0063V37.4029C458.831 36.8669 459.062 36.6358 459.598 36.6358H466.64C467.176 36.6358 467.408 36.8669 467.408 37.4029V40.7714C469.473 37.634 472.768 36.026 477.203 36.026C478.197 36.026 479.116 36.1047 479.957 36.2571V36.2522Z" fill="#FF7276"/>
<path d="M484.471 40.6927C487.914 37.2504 492.354 35.5637 497.94 35.5637C503.527 35.5637 507.967 37.2455 511.41 40.6927C514.852 44.0613 516.612 48.4231 516.612 53.7046C516.612 58.986 514.852 63.2741 511.41 66.7164C507.967 70.0849 503.527 71.7667 497.94 71.7667C492.354 71.7667 487.914 70.0849 484.471 66.7164C481.029 63.2741 479.342 58.986 479.342 53.7046C479.342 48.4231 481.024 44.0613 484.471 40.6927ZM507.894 53.6259C507.894 47.5773 503.837 43.2154 497.945 43.2154C492.054 43.2154 488.071 47.5035 488.071 53.6259C488.071 59.7482 492.128 64.1101 497.945 64.1101C503.763 64.1101 507.894 59.7482 507.894 53.6259Z" fill="#FF7276"/>
</svg>
