<svg width="295" height="99" viewBox="0 0 295 99" fill="none" xmlns="http://www.w3.org/2000/svg">
<path d="M46.2154 72.194C45.4598 73.0609 45.6081 72.9682 44.7875 73.7887C44.4955 74.0762 44.2034 74.3636 43.9067 74.6464C43.7213 74.8225 43.5312 74.9941 43.3458 75.1656C39.7019 78.5359 35.6362 81.2989 31.2692 83.4036C31.0745 83.501 30.8705 83.5937 30.6712 83.6864C26.3691 85.6891 21.7888 87.066 17.0369 87.7614C15.8177 86.7508 14.6355 85.6799 13.5044 84.5487C7.51478 78.5591 3.24973 71.2993 0.954956 63.3811C3.70869 64.3686 6.67568 64.911 9.7632 64.911C14.4037 64.911 18.7708 63.6917 22.5537 61.5638C22.7762 61.4387 22.9987 61.3089 23.2213 61.1744C23.7127 60.8777 24.1948 60.5625 24.6677 60.2333C24.8392 60.1128 25.0107 59.9923 25.1776 59.8671C30.4023 56.0425 33.6984 51.1191 34.9687 44.5268C35.9654 54.7119 39.549 64.3871 46.2061 72.1893L46.2154 72.194Z" fill="#FF7276"/>
<path d="M98.0727 62.4816C96.9601 66.6169 95.3144 70.5806 93.1679 74.2893C91.0215 77.998 88.379 81.4472 85.2683 84.5579C84.0537 85.7725 82.7881 86.9129 81.4762 87.9838C76.6038 87.4414 71.8937 86.1897 67.4618 84.2797C67.2532 84.1916 67.0445 84.1035 66.8359 84.0108C62.1073 81.8922 57.7032 79.0179 53.7812 75.4529C53.5865 75.2721 53.3871 75.0867 53.1924 74.9059C52.803 74.5443 52.4229 74.178 52.0427 73.7979C51.2268 72.9773 50.4387 72.1336 49.683 71.2667C49.544 71.1091 49.4142 70.9514 49.2751 70.7938C42.4603 62.7783 38.4224 52.9177 37.6667 42.4081C41.3801 40.2941 45.6776 39.0842 50.2486 39.0842C54.064 39.0842 57.6893 39.9279 60.9437 41.4346C60.9808 41.4531 61.0132 41.4716 61.0503 41.4856C61.1291 42.2505 61.245 43.0015 61.3887 43.7479C62.7795 50.9428 67.128 57.0947 73.1176 60.8822C73.2938 60.9935 73.4699 61.1001 73.6461 61.2067C74.3044 61.6008 74.9812 61.9717 75.6766 62.3101C75.8899 62.4121 76.1031 62.5141 76.321 62.6114C79.5986 64.0949 83.2332 64.9201 87.0578 64.9201C90.8824 64.9201 94.721 64.0486 98.0681 62.4863L98.0727 62.4816Z" fill="#FA9DA3"/>
<path d="M98.8006 46.2606C95.1058 48.3467 90.8361 49.5382 86.2976 49.5382C82.408 49.5382 78.7225 48.662 75.4171 47.0997C74.6475 38.8246 70.007 31.6575 63.3312 27.4295C63.1551 27.3182 62.9789 27.2116 62.8027 27.105C62.1676 26.7248 61.5186 26.3679 60.851 26.0387C60.6378 25.9367 60.4245 25.8347 60.2113 25.7374C59.7848 25.5427 59.3536 25.3619 58.9132 25.1857C58.6768 25.093 58.4357 25.0049 58.1946 24.9168C55.4409 23.9294 52.4739 23.387 49.3864 23.387C45.775 23.387 42.3305 24.1241 39.1967 25.4546C38.9834 25.5427 38.7702 25.64 38.5615 25.7327C38.4966 25.7606 38.4364 25.793 38.3761 25.8208C38.1304 25.9321 37.8893 26.0526 37.6483 26.1732C36.5449 26.7295 35.4879 27.36 34.4866 28.06C34.315 28.1805 34.1435 28.301 33.9766 28.4262C28.0195 32.7886 23.9677 39.608 23.3326 47.3825C20.1987 48.7593 16.7357 49.5289 13.0965 49.5289C8.3122 49.5289 3.8339 48.203 0 45.9036C0.853009 34.0403 5.87834 23.0068 14.3713 14.5092C14.6634 14.2218 14.9555 13.9343 15.2522 13.6516C15.4376 13.4754 15.6277 13.3039 15.8131 13.1323C19.8371 9.41433 24.3756 6.42879 29.2619 4.25455C29.4752 4.16183 29.6838 4.07375 29.897 3.98103C33.7866 2.31674 37.8893 1.15312 42.1219 0.53191C42.0895 0.504094 42.057 0.480915 42.0246 0.453099C42.0617 0.480915 42.0941 0.50873 42.1312 0.53191C42.4001 0.490186 42.6643 0.448463 42.9332 0.40674C42.9332 0.40674 42.9425 0.411376 42.9471 0.416012C45.0704 0.142493 47.2214 -0.0012207 49.3957 -0.0012207C50.9858 -0.0012207 52.562 0.072954 54.1243 0.221303C54.4117 0.249119 54.6945 0.276934 54.9773 0.309386C59.9609 0.865696 64.7776 2.15912 69.2977 4.14792C69.5063 4.23601 69.7103 4.33336 69.9189 4.42608C74.5363 6.53079 78.8337 9.35406 82.6723 12.8449C82.867 13.0257 83.0663 13.2111 83.261 13.3919C83.6505 13.7535 84.0306 14.1198 84.4108 14.4999C92.9872 23.0764 98.0264 34.2489 98.8053 46.242L98.8006 46.2606Z" fill="#FA9DA3"/>
<path d="M49.618 98.9989C57.0216 98.9989 64.0403 97.3717 70.3498 94.4603C69.8121 94.1914 69.2743 93.9318 68.7273 93.6815C68.5279 93.5934 68.3332 93.5007 68.1339 93.4173C63.8271 91.5258 59.2375 90.2926 54.4857 89.7595C54.2168 89.7271 53.9433 89.6992 53.6698 89.6714C52.1817 89.5324 50.6796 89.4582 49.1637 89.4582C47.0914 89.4582 45.0424 89.5926 43.0165 89.8569C43.0165 89.8569 43.0072 89.8522 43.0026 89.8476C42.7476 89.8847 42.4926 89.9218 42.2376 89.9635C42.2052 89.9403 42.1727 89.9125 42.1403 89.8893C42.1727 89.9125 42.2005 89.9403 42.233 89.9635C38.1997 90.5523 34.287 91.6602 30.5829 93.2504C30.3836 93.3384 30.1796 93.4219 29.9803 93.51C29.4564 93.7418 28.9326 93.9875 28.418 94.2424C34.8433 97.2929 42.029 98.9989 49.6134 98.9989H49.618Z" fill="#FA9DA3"/>
<path d="M140.89 20.2875C143.645 23.1762 145.057 27.0754 145.057 31.8468C145.057 36.6182 143.645 40.4483 140.89 43.3413C138.135 46.2301 134.573 47.7112 130.138 47.7112C125.704 47.7112 122.677 46.433 120.462 43.8811V59.9441C120.462 60.4147 120.259 60.6177 119.788 60.6177H113.674C113.203 60.6177 113 60.4147 113 59.9441V17.5369C113 17.0662 113.203 16.8633 113.674 16.8633H119.788C120.259 16.8633 120.462 17.0662 120.462 17.5369V19.6873C122.681 17.2001 125.907 15.922 130.138 15.922C134.37 15.922 138.135 17.3987 140.89 20.2918V20.2875ZM137.397 31.7777C137.397 26.3327 133.834 22.6365 128.528 22.6365C124.965 22.6365 121.74 24.3853 120.462 27.0711V36.48C121.74 39.1701 124.965 40.9146 128.528 40.9146C133.839 40.9146 137.397 37.2184 137.397 31.7734V31.7777Z" fill="#FF7276"/>
<path d="M146.335 44.4123C145.998 44.2093 145.933 43.9416 146.067 43.54L147.816 39.3731C148.019 38.9716 148.287 38.9025 148.688 39.1702C151.309 40.919 154.401 41.7912 157.894 41.7912C161.388 41.7912 163.205 40.716 163.205 38.5657C163.205 37.8273 162.938 37.1537 162.467 36.683C161.595 35.6769 161.055 35.6769 159.509 35.3401L154.669 34.062C149.496 32.7839 146.469 30.2967 146.469 25.3914C146.469 19.7478 151.309 15.9134 158.499 15.9134C162.463 15.9134 166.025 16.7856 169.186 18.5344C169.587 18.7374 169.721 19.0742 169.523 19.4757L167.774 23.6426C167.571 24.1133 167.303 24.1824 166.902 23.9103C164.484 22.4984 161.793 21.76 158.905 21.76C155.679 21.76 154.064 22.8352 154.064 24.9208C154.064 25.5944 154.267 26.1298 154.669 26.6005C155.541 27.4079 156.012 27.5418 157.627 27.8786L163.072 29.2215C168.314 30.4996 170.935 33.4575 170.935 37.9568C170.935 44.0711 165.896 47.7026 158.032 47.7026C153.192 47.7026 149.297 46.6274 146.339 44.4079L146.335 44.4123Z" fill="#FF7276"/>
<path d="M177.114 11.0123C174.091 11.0123 171.872 8.86197 171.872 5.97322C171.872 3.08447 174.091 0.998871 177.114 0.998871C180.136 0.998871 182.356 3.08447 182.356 5.97322C182.356 8.86197 180.136 11.0123 177.114 11.0123ZM174.022 46.8346C173.551 46.8346 173.348 46.6316 173.348 46.1609V17.5325C173.348 17.0619 173.551 16.8589 174.022 16.8589H180.136C180.607 16.8589 180.81 17.0619 180.81 17.5325V46.1609C180.81 46.6316 180.607 46.8346 180.136 46.8346H174.022Z" fill="#FF7276"/>
<path d="M220.056 4.42291C220.056 3.95225 220.259 3.7493 220.73 3.7493H226.844C227.315 3.7493 227.518 3.95225 227.518 4.42291V46.1565C227.518 46.6271 227.315 46.8301 226.844 46.8301H220.73C220.259 46.8301 220.056 46.6271 220.056 46.1565V43.8723C217.837 46.4242 214.611 47.7023 210.38 47.7023C206.148 47.7023 202.314 46.2256 199.559 43.3325C196.804 40.4438 195.461 36.6137 195.461 31.838C195.461 27.0622 196.804 23.1674 199.559 20.2786C202.314 17.3899 205.945 15.9088 210.38 15.9088C214.814 15.9088 217.841 17.1869 220.056 19.6741V4.41859V4.42291ZM220.056 36.6137V27.0018C218.644 24.3117 215.488 22.632 211.99 22.632C206.679 22.632 203.121 26.3282 203.121 31.7732C203.121 37.2182 206.683 40.9144 211.99 40.9144C215.484 40.9144 218.709 39.2347 220.056 36.6137Z" fill="#FF7276"/>
<path d="M234.103 20.4214C237.125 17.3988 241.025 15.9177 245.93 15.9177C250.835 15.9177 254.734 17.3944 257.757 20.4214C260.779 23.3792 262.325 27.2093 262.325 31.8468C262.325 36.4844 260.779 40.2497 257.757 43.2723C254.734 46.2301 250.835 47.7069 245.93 47.7069C241.025 47.7069 237.125 46.2301 234.103 43.2723C231.08 40.2497 229.599 36.4844 229.599 31.8468C229.599 27.2093 231.076 23.3792 234.103 20.4214ZM254.67 31.7777C254.67 26.4666 251.107 22.6365 245.934 22.6365C240.761 22.6365 237.264 26.4018 237.264 31.7777C237.264 37.1537 240.826 40.9837 245.934 40.9837C251.042 40.9837 254.67 37.1537 254.67 31.7777Z" fill="#FF7276"/>
<path d="M266.778 70.4806C269.8 67.4579 273.699 65.9769 278.605 65.9769C283.51 65.9769 287.409 67.4536 290.432 70.4806C293.454 73.4384 295 77.2685 295 81.906C295 86.5436 293.454 90.3089 290.432 93.3315C287.409 96.2893 283.51 97.7661 278.605 97.7661C273.699 97.7661 269.8 96.2893 266.778 93.3315C263.755 90.3089 262.274 86.5436 262.274 81.906C262.274 77.2685 263.751 73.4384 266.778 70.4806ZM287.344 81.8369C287.344 76.5258 283.782 72.6957 278.609 72.6957C273.436 72.6957 269.938 76.461 269.938 81.8369C269.938 87.2128 273.501 91.0429 278.609 91.0429C283.717 91.0429 287.344 87.2128 287.344 81.8369Z" fill="#FF7276"/>
<path d="M182.097 66.7874H175.913C175.443 66.7874 175.24 66.9903 175.24 67.461V87.4879C173.694 89.8412 171.41 90.9812 168.318 90.9812C164.017 90.9812 161.867 88.5631 161.867 83.6535V67.4567C161.867 66.986 161.664 66.783 161.193 66.783H155.079C155.079 66.783 155.049 66.7874 155.032 66.7874C155.023 66.7874 155.01 66.783 155.001 66.783H144.038C143.826 66.783 143.658 66.6146 143.658 66.4031V64.6327C143.658 60.9365 145.541 59.1229 149.302 59.1229C150.446 59.1229 151.387 59.2568 152.126 59.4597C152.596 59.5288 152.864 59.3258 152.864 58.8552V54.2867C152.864 53.8851 152.661 53.6131 152.324 53.4793C150.644 53.0086 149.099 52.8056 147.687 52.8056C140.696 52.8056 136.127 56.4328 136.127 63.6266V66.4074C136.127 66.619 135.959 66.7874 135.747 66.7874H128.601C128.23 66.7874 127.927 67.0896 127.927 67.461V72.6599C127.927 72.8714 128.096 73.0398 128.307 73.0398H135.747C135.959 73.0398 136.127 73.2082 136.127 73.4198V96.383C136.127 96.5946 136.296 96.763 136.507 96.763H143.274C143.485 96.763 143.654 96.5946 143.654 96.383V73.4198C143.654 73.2082 143.822 73.0398 144.034 73.0398H154.405V84.936C154.405 93.002 158.641 97.6396 165.965 97.6396C169.661 97.6396 172.753 96.4953 175.24 94.2801V96.0937C175.24 96.5644 175.443 96.7673 175.913 96.7673H182.097C182.567 96.7673 182.77 96.5644 182.77 96.0937V67.4653C182.77 66.9946 182.567 66.7917 182.097 66.7917V66.7874Z" fill="#FF7276"/>
<path d="M209.918 72.3661C209.918 72.8367 209.715 73.0397 209.245 73.0397H199.633V85.4712C199.633 89.2365 201.515 91.1149 205.345 91.1149C206.352 91.1149 207.496 90.981 208.839 90.6442C209.309 90.5104 209.577 90.7133 209.577 91.2487V96.0892C209.577 96.5599 209.374 96.7628 208.973 96.8276C207.09 97.2983 205.207 97.566 203.329 97.566C196.139 97.566 192.106 93.8007 192.106 86.3435V73.0354H184.243C183.773 73.0354 183.57 72.8324 183.57 72.3618V67.4565C183.57 66.9858 183.773 66.7829 184.243 66.7829H192.106V54.3513C192.106 53.8807 192.309 53.6777 192.78 53.6777H198.963C199.434 53.6777 199.637 53.8807 199.637 54.3513V66.7829H209.249C209.72 66.7829 209.923 66.9858 209.923 67.4565V72.3618L209.918 72.3661Z" fill="#FF7276"/>
<path d="M232.298 67.4566C232.298 66.9859 232.501 66.7829 232.972 66.7829H239.155C239.626 66.7829 239.829 66.9859 239.829 67.4566V96.085C239.829 96.5556 239.626 96.7586 239.155 96.7586H232.972C232.501 96.7586 232.298 96.5556 232.298 96.085V94.2714C229.811 96.4909 226.719 97.6308 223.023 97.6308C215.696 97.6308 211.464 92.9933 211.464 84.9272V67.4522C211.464 66.9816 211.667 66.7786 212.137 66.7786H218.252C218.722 66.7786 218.925 66.9816 218.925 67.4522V83.6491C218.925 88.5544 221.076 90.9768 225.377 90.9768C228.468 90.9768 230.752 89.8325 232.298 87.4835V67.4566Z" fill="#FF7276"/>
<path d="M262.002 66.4506C262.403 66.5196 262.606 66.7183 262.606 67.1889V72.6339C262.606 73.1046 262.339 73.3076 261.868 73.2385C261.13 73.1046 260.322 73.0355 259.584 73.0355C255.417 73.0355 252.528 74.7152 250.982 78.0099L250.913 96.0894C250.913 96.56 250.71 96.763 250.24 96.763H244.125C243.655 96.763 243.452 96.56 243.452 96.0894V67.461C243.452 66.9903 243.655 66.7874 244.125 66.7874H250.309C250.779 66.7874 250.982 66.9903 250.982 67.461V70.4188C252.796 67.6639 255.689 66.2519 259.584 66.2519C260.456 66.2519 261.263 66.321 262.002 66.4549V66.4506Z" fill="#FF7276"/>
</svg>
