<svg width="373" height="197" viewBox="0 0 373 197" fill="none" xmlns="http://www.w3.org/2000/svg">
<path d="M183.119 76.5955C182.318 77.5151 182.475 77.4167 181.604 78.2872C181.295 78.592 180.985 78.8969 180.67 79.1969C180.473 79.3838 180.272 79.5657 180.075 79.7477C176.21 83.3227 171.897 86.2536 167.265 88.4862C167.058 88.5894 166.842 88.6878 166.631 88.7861C162.067 90.9105 157.208 92.371 152.168 93.1087C150.875 92.0366 149.621 90.9007 148.421 89.7008C142.067 83.3473 137.543 75.6464 135.109 67.2472C138.03 68.2947 141.177 68.87 144.452 68.87C149.375 68.87 154.007 67.5767 158.02 65.3196C158.256 65.1868 158.492 65.0491 158.728 64.9065C159.249 64.5918 159.761 64.2574 160.262 63.9082C160.444 63.7804 160.626 63.6525 160.803 63.5197C166.345 59.4628 169.842 54.2403 171.189 47.2476C172.246 58.0514 176.048 68.3144 183.109 76.5906L183.119 76.5955Z" fill="#FF7276"/>
<path d="M238.127 66.2931C236.947 70.6796 235.201 74.8841 232.924 78.8181C230.647 82.7522 227.844 86.4108 224.545 89.7105C223.256 90.9989 221.914 92.2086 220.522 93.3446C215.354 92.7692 210.357 91.4415 205.656 89.4155C205.435 89.322 205.214 89.2286 204.992 89.1302C199.976 86.8829 195.305 83.834 191.145 80.0525C190.938 79.8607 190.727 79.664 190.52 79.4722C190.107 79.0886 189.704 78.7001 189.3 78.2969C188.435 77.4265 187.599 76.5315 186.797 75.6119C186.65 75.4447 186.512 75.2775 186.365 75.1103C179.136 66.6079 174.853 56.1482 174.051 45.0001C177.99 42.7577 182.549 41.4742 187.397 41.4742C191.445 41.4742 195.29 42.3692 198.742 43.9674C198.782 43.9871 198.816 44.0068 198.855 44.0215C198.939 44.8329 199.062 45.6296 199.214 46.4213C200.69 54.0533 205.302 60.5789 211.656 64.5966C211.843 64.7146 212.029 64.8277 212.216 64.9408C212.915 65.3588 213.633 65.7522 214.37 66.1112C214.596 66.2194 214.823 66.3276 215.054 66.4308C218.53 68.0044 222.386 68.8798 226.443 68.8798C230.5 68.8798 234.571 67.9553 238.122 66.2981L238.127 66.2931Z" fill="#FA9DA3"/>
<path d="M238.899 49.0867C234.98 51.2996 230.451 52.5634 225.636 52.5634C221.51 52.5634 217.601 51.634 214.095 49.9767C213.279 41.1989 208.356 33.5964 201.275 29.1116C201.088 28.9935 200.901 28.8804 200.714 28.7673C200.04 28.3641 199.352 27.9854 198.644 27.6363C198.418 27.5281 198.191 27.4199 197.965 27.3167C197.513 27.1101 197.056 26.9183 196.588 26.7315C196.338 26.6331 196.082 26.5397 195.826 26.4463C192.905 25.3988 189.758 24.8235 186.483 24.8235C182.652 24.8235 178.998 25.6054 175.674 27.0167C175.448 27.1101 175.222 27.2134 175 27.3117C174.931 27.3412 174.868 27.3757 174.804 27.4052C174.543 27.5232 174.287 27.6511 174.032 27.7789C172.861 28.369 171.74 29.0378 170.678 29.7804C170.496 29.9082 170.314 30.0361 170.137 30.1688C163.818 34.7963 159.52 42.03 158.846 50.2767C155.522 51.7372 151.848 52.5535 147.988 52.5535C142.913 52.5535 138.163 51.1471 134.096 48.708C135.001 36.124 140.332 24.4202 149.34 15.4063C149.65 15.1015 149.96 14.7966 150.275 14.4966C150.472 14.3097 150.673 14.1278 150.87 13.9458C155.138 10.002 159.953 6.83505 165.136 4.52872C165.362 4.43037 165.583 4.33693 165.809 4.23858C169.935 2.47318 174.287 1.23888 178.777 0.579923C178.743 0.550418 178.708 0.52583 178.674 0.496325C178.713 0.52583 178.747 0.555335 178.787 0.579923C179.072 0.535665 179.352 0.491407 179.638 0.447149C179.638 0.447149 179.647 0.452067 179.652 0.456984C181.905 0.166848 184.186 0.0144043 186.493 0.0144043C188.179 0.0144043 189.851 0.0930851 191.509 0.250447C191.813 0.279952 192.113 0.309457 192.413 0.34388C197.7 0.933987 202.809 2.30598 207.604 4.41561C207.825 4.50905 208.041 4.61232 208.263 4.71067C213.16 6.94324 217.719 9.93803 221.791 13.6409C221.997 13.8327 222.209 14.0294 222.415 14.2212C222.828 14.6048 223.232 14.9933 223.635 15.3965C232.732 24.494 238.078 36.3453 238.904 49.067L238.899 49.0867Z" fill="#FA9DA3"/>
<path d="M186.729 105.029C194.582 105.029 202.027 103.303 208.72 100.214C208.149 99.9293 207.579 99.6539 206.999 99.3883C206.787 99.2949 206.581 99.1966 206.369 99.108C201.801 97.1017 196.932 95.7936 191.892 95.2281C191.607 95.1937 191.317 95.1642 191.027 95.1347C189.448 94.9871 187.855 94.9084 186.247 94.9084C184.049 94.9084 181.875 95.0511 179.726 95.3314C179.726 95.3314 179.716 95.3264 179.711 95.3215C179.441 95.3609 179.17 95.4002 178.9 95.4445C178.865 95.4199 178.831 95.3904 178.797 95.3658C178.831 95.3904 178.86 95.4199 178.895 95.4445C174.617 96.069 170.466 97.2443 166.537 98.931C166.326 99.0244 166.109 99.113 165.898 99.2064C165.342 99.4523 164.786 99.7129 164.241 99.9834C171.056 103.219 178.679 105.029 186.724 105.029H186.729Z" fill="#FA9DA3"/>
<path d="M32.0544 150.996C35.1918 154.285 36.7998 158.726 36.7998 164.16C36.7998 169.594 35.1918 173.956 32.0544 177.25C28.917 180.54 24.86 182.227 19.8097 182.227C14.7594 182.227 11.3122 180.771 8.78946 177.865V196.158C8.78946 196.694 8.55834 196.926 8.02232 196.926H1.05907C0.523055 196.926 0.291931 196.694 0.291931 196.158V147.863C0.291931 147.327 0.523055 147.096 1.05907 147.096H8.02232C8.55834 147.096 8.78946 147.327 8.78946 147.863V150.312C11.3171 147.48 14.9905 146.024 19.8097 146.024C24.6289 146.024 28.917 147.706 32.0544 151V150.996ZM28.0761 164.081C28.0761 157.88 24.0191 153.671 17.9754 153.671C13.9185 153.671 10.2451 155.662 8.78946 158.721V169.436C10.2451 172.5 13.9185 174.487 17.9754 174.487C24.024 174.487 28.0761 170.277 28.0761 164.076V164.081Z" fill="#FF7276"/>
<path d="M38.2554 178.47C37.8719 178.239 37.7981 177.934 37.9505 177.477L39.9421 172.731C40.1733 172.274 40.4781 172.195 40.9355 172.5C43.9204 174.492 47.4414 175.485 51.4197 175.485C55.398 175.485 57.4683 174.26 57.4683 171.812C57.4683 170.971 57.1634 170.203 56.6274 169.667C55.634 168.522 55.0193 168.522 53.2589 168.138L47.7463 166.683C41.8551 165.227 38.4079 162.394 38.4079 156.808C38.4079 150.381 43.9204 146.014 52.1082 146.014C56.6225 146.014 60.6795 147.007 64.2791 148.999C64.7364 149.23 64.8889 149.614 64.6627 150.071L62.6711 154.816C62.4399 155.352 62.135 155.431 61.6777 155.121C58.9239 153.513 55.8603 152.672 52.5704 152.672C48.897 152.672 47.0578 153.897 47.0578 156.272C47.0578 157.039 47.289 157.649 47.7463 158.185C48.7396 159.105 49.2757 159.257 51.1148 159.641L57.3158 161.17C63.2858 162.626 66.2707 165.994 66.2707 171.118C66.2707 178.081 60.5319 182.217 51.5771 182.217C46.0645 182.217 41.6289 180.993 38.2603 178.465L38.2554 178.47Z" fill="#FF7276"/>
<path d="M73.3077 140.433C69.8655 140.433 67.3378 137.984 67.3378 134.694C67.3378 131.404 69.8655 129.029 73.3077 129.029C76.75 129.029 79.2776 131.404 79.2776 134.694C79.2776 137.984 76.75 140.433 73.3077 140.433ZM69.7868 181.229C69.2508 181.229 69.0196 180.998 69.0196 180.462V147.858C69.0196 147.322 69.2508 147.091 69.7868 147.091H76.75C77.286 147.091 77.5172 147.322 77.5172 147.858V180.462C77.5172 180.998 77.286 181.229 76.75 181.229H69.7868Z" fill="#FF7276"/>
<path d="M122.213 132.928C122.213 132.392 122.444 132.161 122.98 132.161H129.943C130.479 132.161 130.71 132.392 130.71 132.928V180.457C130.71 180.993 130.479 181.224 129.943 181.224H122.98C122.444 181.224 122.213 180.993 122.213 180.457V177.855C119.685 180.761 116.012 182.217 111.192 182.217C106.373 182.217 102.006 180.535 98.8691 177.24C95.7317 173.951 94.2023 169.589 94.2023 164.15C94.2023 158.711 95.7317 154.275 98.8691 150.986C102.006 147.696 106.142 146.009 111.192 146.009C116.243 146.009 119.69 147.465 122.213 150.297V132.923V132.928ZM122.213 169.589V158.642C120.605 155.579 117.01 153.666 113.027 153.666C106.978 153.666 102.926 157.875 102.926 164.076C102.926 170.277 106.983 174.487 113.027 174.487C117.005 174.487 120.678 172.574 122.213 169.589Z" fill="#FF7276"/>
<path d="M138.21 151.148C141.652 147.706 146.092 146.019 151.679 146.019C157.265 146.019 161.706 147.701 165.148 151.148C168.59 154.516 170.351 158.878 170.351 164.16C170.351 169.441 168.59 173.729 165.148 177.172C161.706 180.54 157.265 182.222 151.679 182.222C146.092 182.222 141.652 180.54 138.21 177.172C134.767 173.729 133.081 169.441 133.081 164.16C133.081 158.878 134.762 154.516 138.21 151.148ZM161.632 164.081C161.632 158.033 157.575 153.671 151.684 153.671C145.792 153.671 141.809 157.959 141.809 164.081C141.809 170.203 145.866 174.565 151.684 174.565C157.501 174.565 161.632 170.203 161.632 164.081Z" fill="#FF7276"/>
<path d="M245.053 147.091H238.011C237.475 147.091 237.244 147.322 237.244 147.858V170.666C235.484 173.346 232.882 174.644 229.361 174.644C224.463 174.644 222.014 171.89 222.014 166.299V147.853C222.014 147.317 221.783 147.086 221.247 147.086H214.284C214.284 147.086 214.25 147.091 214.23 147.091C214.22 147.091 214.205 147.086 214.196 147.086H201.71C201.469 147.086 201.277 146.894 201.277 146.653V144.637C201.277 140.428 203.421 138.362 207.704 138.362C209.008 138.362 210.08 138.515 210.92 138.746C211.456 138.825 211.761 138.593 211.761 138.057V132.855C211.761 132.397 211.53 132.088 211.147 131.935C209.234 131.399 207.473 131.168 205.865 131.168C197.904 131.168 192.701 135.299 192.701 143.491V146.658C192.701 146.899 192.509 147.091 192.268 147.091H184.13C183.707 147.091 183.362 147.435 183.362 147.858V153.779C183.362 154.02 183.554 154.212 183.795 154.212H192.268C192.509 154.212 192.701 154.403 192.701 154.644V180.796C192.701 181.037 192.893 181.229 193.134 181.229H200.839C201.08 181.229 201.272 181.037 201.272 180.796V154.644C201.272 154.403 201.464 154.212 201.705 154.212H213.517V167.759C213.517 176.945 218.341 182.227 226.681 182.227C230.891 182.227 234.412 180.924 237.244 178.401V180.466C237.244 181.002 237.475 181.234 238.011 181.234H245.053C245.589 181.234 245.82 181.002 245.82 180.466V147.863C245.82 147.327 245.589 147.096 245.053 147.096V147.091Z" fill="#FF7276"/>
<path d="M276.737 153.444C276.737 153.98 276.506 154.212 275.97 154.212H265.023V168.369C265.023 172.657 267.168 174.796 271.529 174.796C272.675 174.796 273.978 174.644 275.508 174.26C276.044 174.108 276.349 174.339 276.349 174.949V180.461C276.349 180.997 276.117 181.229 275.66 181.302C273.516 181.838 271.372 182.143 269.233 182.143C261.045 182.143 256.452 177.855 256.452 169.363V154.207H247.497C246.961 154.207 246.73 153.976 246.73 153.44V147.853C246.73 147.317 246.961 147.086 247.497 147.086H256.452V132.928C256.452 132.392 256.683 132.161 257.219 132.161H264.261C264.797 132.161 265.028 132.392 265.028 132.928V147.086H275.975C276.511 147.086 276.742 147.317 276.742 147.853V153.44L276.737 153.444Z" fill="#FF7276"/>
<path d="M302.225 147.853C302.225 147.317 302.456 147.086 302.992 147.086H310.034C310.57 147.086 310.801 147.317 310.801 147.853V180.457C310.801 180.993 310.57 181.224 310.034 181.224H302.992C302.456 181.224 302.225 180.993 302.225 180.457V178.391C299.392 180.919 295.871 182.217 291.662 182.217C283.317 182.217 278.497 176.936 278.497 167.75V147.848C278.497 147.312 278.729 147.081 279.265 147.081H286.228C286.764 147.081 286.995 147.312 286.995 147.848V166.294C286.995 171.88 289.444 174.639 294.342 174.639C297.863 174.639 300.464 173.336 302.225 170.661V147.853Z" fill="#FF7276"/>
<path d="M336.053 146.707C336.51 146.786 336.741 147.012 336.741 147.548V153.749C336.741 154.285 336.436 154.516 335.9 154.438C335.059 154.285 334.14 154.207 333.299 154.207C328.553 154.207 325.264 156.12 323.503 159.872L323.424 180.461C323.424 180.998 323.193 181.229 322.657 181.229H315.694C315.158 181.229 314.927 180.998 314.927 180.461V147.858C314.927 147.322 315.158 147.091 315.694 147.091H322.736C323.272 147.091 323.503 147.322 323.503 147.858V151.227C325.569 148.089 328.863 146.481 333.299 146.481C334.292 146.481 335.212 146.56 336.053 146.712V146.707Z" fill="#FF7276"/>
<path d="M340.567 151.148C344.009 147.706 348.45 146.019 354.036 146.019C359.622 146.019 364.063 147.701 367.505 151.148C370.948 154.516 372.708 158.878 372.708 164.16C372.708 169.441 370.948 173.729 367.505 177.172C364.063 180.54 359.622 182.222 354.036 182.222C348.45 182.222 344.009 180.54 340.567 177.172C337.125 173.729 335.438 169.441 335.438 164.16C335.438 158.878 337.12 154.516 340.567 151.148ZM363.989 164.081C363.989 158.033 359.932 153.671 354.041 153.671C348.15 153.671 344.167 157.959 344.167 164.081C344.167 170.203 348.224 174.565 354.041 174.565C359.859 174.565 363.989 170.203 363.989 164.081Z" fill="#FF7276"/>
</svg>
